<svg xmlns="http://www.w3.org/2000/svg" xmlns:xlink="http://www.w3.org/1999/xlink" width="32" height="32" viewBox="0 0 32 32">
  <defs>
    <linearGradient id="linear-gradient" x1="0.092" y1="0.83" x2="1" y2="0.184" gradientUnits="objectBoundingBox">
      <stop offset="0" stop-color="#5879ff"/>
      <stop offset="1" stop-color="#a6b8ff"/>
    </linearGradient>
  </defs>
  <path id="Icon_akar-circle-plus-fill" data-name="Icon akar-circle-plus-fill" d="M17.5,1.5a16,16,0,1,0,16,16A16,16,0,0,0,17.5,1.5Zm1.455,21.818a1.455,1.455,0,0,1-2.909,0V18.955H11.682a1.455,1.455,0,1,1,0-2.909h4.364V11.682a1.455,1.455,0,1,1,2.909,0v4.364h4.364a1.455,1.455,0,1,1,0,2.909H18.955Z" transform="translate(-1.5 -1.5)" fill="url(#linear-gradient)"/>
</svg>
